<?xml version="1.0" encoding="utf-8"?>
<!-- Generator: Adobe Illustrator 14.0.0, SVG Export Plug-In . SVG Version: 6.00 Build 43363)  -->
<!DOCTYPE svg PUBLIC "-//W3C//DTD SVG 1.1//EN" "http://www.w3.org/Graphics/SVG/1.1/DTD/svg11.dtd">
<svg version="1.1" id="Calque_1" xmlns="http://www.w3.org/2000/svg" xmlns:xlink="http://www.w3.org/1999/xlink" x="0px" y="0px"
	 width="800px" height="600px" viewBox="0 0 800 600" enable-background="new 0 0 800 600" xml:space="preserve">
<path fill="none" d="M400,50c-67.9,0-76.4,0.3-103.075,1.5c-26.6,1.225-44.775,5.45-60.675,11.625
	c-16.688,6.271-31.806,16.108-44.3,28.825c-12.716,12.494-22.553,27.612-28.825,44.3c-6.175,15.9-10.4,34.075-11.625,60.675
	C150.275,223.6,150,232.1,150,300c0,67.9,0.275,76.4,1.5,103.075c1.225,26.6,5.45,44.774,11.625,60.675
	c6.272,16.688,16.109,31.805,28.825,44.3c12.495,12.716,27.613,22.553,44.3,28.825c15.9,6.175,34.075,10.4,60.675,11.625
	C323.6,549.7,332.1,550,400,550c67.9,0,76.4-0.3,103.075-1.5c26.6-1.225,44.774-5.45,60.675-11.625
	c16.688-6.271,31.806-16.109,44.3-28.825c12.716-12.494,22.554-27.612,28.825-44.3c6.175-15.9,10.4-34.075,11.625-60.675
	C649.7,376.4,650,367.9,650,300c0-67.9-0.3-76.4-1.5-103.075c-1.225-26.6-5.45-44.775-11.625-60.675
	c-6.271-16.688-16.109-31.806-28.825-44.3c-12.493-12.717-27.612-22.554-44.3-28.825c-15.9-6.175-34.075-10.4-60.675-11.625
	C476.4,50.3,467.9,50,400,50 M400,95.05c66.75,0,74.65,0.25,101,1.45c24.4,1.125,37.625,5.175,46.45,8.6
	c11.649,4.55,20,9.975,28.75,18.7c8.75,8.75,14.149,17.1,18.7,28.75c3.399,8.825,7.5,22.05,8.6,46.425
	c1.2,26.375,1.45,34.25,1.45,101.025c0,66.75-0.25,74.65-1.45,101c-1.125,24.4-5.2,37.625-8.6,46.45
	c-4.009,10.859-10.398,20.684-18.7,28.75c-8.75,8.75-17.101,14.149-28.75,18.7c-8.825,3.399-22.05,7.5-46.425,8.6
	c-26.351,1.2-34.25,1.45-101.025,1.45c-66.75,0-74.675-0.25-101-1.45c-24.4-1.125-37.625-5.2-46.45-8.6
	c-10.86-4.007-20.685-10.396-28.75-18.7c-8.303-8.065-14.693-17.89-18.7-28.75c-3.425-8.825-7.5-22.05-8.6-46.425
	c-1.2-26.375-1.45-34.25-1.45-101.025c0-66.75,0.25-74.65,1.45-101c1.125-24.4,5.175-37.625,8.6-46.45
	c4.55-11.65,9.975-20,18.7-28.75c8.75-8.75,17.1-14.15,28.75-18.7c8.825-3.425,22.05-7.5,46.425-8.6
	C325.35,95.3,333.225,95.05,400,95.05 M400,383.325c-46.019,0.004-83.328-37.299-83.332-83.318
	c-0.003-46.019,37.299-83.328,83.318-83.332c0.004,0,0.009,0,0.014,0c46.02,0.004,83.322,37.313,83.318,83.332
	C483.314,346.021,446.014,383.321,400,383.325 M400,171.625c-70.899,0-128.375,57.476-128.375,128.375S329.101,428.375,400,428.375
	S528.375,370.899,528.375,300S470.899,171.625,400,171.625 M563.45,166.55c0,16.569-13.432,30-30,30s-30-13.431-30-30
	c0-16.568,13.432-30,30-30S563.45,149.981,563.45,166.55"/>
</svg>
